<svg width="121" height="121" viewBox="0 0 121 121" fill="none" xmlns="http://www.w3.org/2000/svg">
<g filter="url(#filter0_f_1_1185)">
<circle cx="60.5" cy="60.5" r="25" fill="#FFB74A"/>
</g>
<g clip-path="url(#clip0_1_1185)">
<path d="M86.0008 65.1866C87.9857 65.1866 89.8895 64.4051 91.304 62.9906C92.8734 61.4212 93.6635 59.2496 93.4717 57.0328C93.4318 56.5717 93.0662 56.2062 92.6051 56.1662C90.3892 55.9748 88.2169 56.7645 86.6473 58.3339C86.5448 58.4365 86.446 58.5418 86.3502 58.6493C86.3536 58.4765 86.3568 58.3036 86.3568 58.13C86.3568 56.0856 86.1082 54.0634 85.628 52.1045C85.6291 52.104 85.6301 52.1037 85.6312 52.1032C87.647 51.161 89.1326 49.391 89.7069 47.247C90.2814 45.1032 89.8798 42.8276 88.6053 41.0036C88.3403 40.6242 87.8407 40.4906 87.4216 40.6865C85.406 41.6287 83.9204 43.3988 83.3459 45.5427C83.3077 45.6854 83.2745 45.8287 83.2449 45.9724C82.4128 44.4525 81.423 43.0129 80.283 41.6812C79.955 41.2982 79.6158 40.9268 79.2672 40.5655C80.5398 38.7422 80.9406 36.4682 80.3665 34.3257C79.792 32.1818 78.3064 30.4117 76.2908 29.4696C75.8716 29.2736 75.3723 29.4074 75.1071 29.7867C73.8326 31.6105 73.4311 33.8862 74.0055 36.0301C74.0453 36.1783 74.0903 36.3243 74.1386 36.4689C71.4151 34.8182 68.3886 33.6802 65.2156 33.1465C64.6962 33.0592 64.2059 33.4091 64.1187 33.9275C64.0315 34.446 64.3811 34.9372 64.8997 35.0244C65.9412 35.1996 66.9656 35.4458 67.9667 35.7578C66.0134 36.4055 64.412 37.8247 63.5322 39.7066C63.3363 40.1258 63.4701 40.6252 63.8494 40.8903C65.128 41.7838 66.6284 42.2481 68.15 42.2481C68.799 42.2481 69.4517 42.1636 70.0929 41.9918C71.8693 41.5159 73.3873 40.413 74.3921 38.9028C75.8001 39.8819 77.1047 41.0171 78.2779 42.2922C76.2549 41.8677 74.1477 42.2952 72.4378 43.4901C72.0585 43.7552 71.9246 44.2546 72.1205 44.6738C73.0629 46.6896 74.8329 48.1751 76.9766 48.7495C77.6177 48.9213 78.2704 49.0058 78.9195 49.0058C80.0712 49.0058 81.2109 48.7391 82.2514 48.2222C82.9622 49.7442 83.5088 51.3397 83.8789 52.9811C82.3395 51.6044 80.3024 50.9228 78.2267 51.1022C77.7657 51.1421 77.4001 51.5077 77.3601 51.9687C77.1683 54.1854 77.9583 56.3569 79.5278 57.9264C79.8812 58.2797 80.2695 58.598 80.6824 58.8725C81.1203 59.1637 81.7113 59.0446 82.0024 58.6068C82.2935 58.1689 82.1746 57.5778 81.7367 57.2867C81.4287 57.0819 81.1385 56.844 80.8743 56.5798C79.9068 55.6123 79.3364 54.3376 79.2482 52.9902C80.5955 53.0785 81.8704 53.6489 82.8378 54.6164C83.7719 55.5505 84.3344 56.7711 84.4516 58.067C84.4516 58.088 84.4523 58.1091 84.4523 58.1302C84.4523 60.5603 84.0809 62.9054 83.3919 65.1116C82.7481 63.1466 81.3242 61.5353 79.4342 60.6517C79.015 60.4558 78.5157 60.5895 78.2504 60.9688C76.9758 62.7928 76.5744 65.0684 77.1489 67.2122C77.6258 68.9922 78.7322 70.5127 80.2472 71.5175C79.2863 72.8955 78.1816 74.1659 76.9549 75.3071C77.3405 73.3185 76.9092 71.2582 75.7365 69.5802C75.4715 69.2007 74.9719 69.067 74.5528 69.263C72.5372 70.2053 71.0516 71.9754 70.4771 74.1192C70.0044 75.8839 70.1942 77.737 70.9862 79.3547C67.9513 80.7902 64.562 81.5947 60.9879 81.5947C57.4204 81.5947 54.037 80.793 51.0064 79.3625C51.8025 77.743 51.996 75.887 51.5223 74.1192C50.9479 71.9754 49.4623 70.2054 47.4467 69.263C47.0275 69.0671 46.5282 69.2008 46.263 69.5802C45.0851 71.2657 44.6548 73.3369 45.0494 75.3335C43.3792 73.785 41.9344 71.9971 40.7695 70.0246C40.1286 68.7897 39.9648 67.3599 40.3291 66.0007C40.6833 64.6791 41.5018 63.5477 42.6247 62.7976C43.2222 64.0087 43.3654 65.3977 43.0112 66.7194C42.9223 67.0514 42.803 67.3754 42.6567 67.6826C42.4306 68.1574 42.6324 68.7255 43.107 68.9516C43.5818 69.1775 44.15 68.976 44.3761 68.5012C44.5721 68.0896 44.7317 67.6559 44.8506 67.2122C45.4251 65.0684 45.0235 62.7928 43.749 60.9688C43.484 60.5895 42.9845 60.4557 42.5653 60.6517C40.6633 61.5409 39.2342 63.1675 38.5963 65.1494C38.0896 63.5364 37.7537 61.8489 37.6077 60.1081C39.4324 60.0017 41.162 59.2359 42.4716 57.9263C44.0412 56.3568 44.8312 54.1852 44.6394 51.9685C44.5995 51.5076 44.2339 51.1419 43.7728 51.1021C41.6833 50.9215 39.6341 51.6138 38.0911 53.0085C38.4622 51.354 39.0121 49.7457 39.7291 48.2123C40.7748 48.7354 41.9212 49.0057 43.0801 49.0057C43.7291 49.0057 44.382 48.9212 45.023 48.7494C47.1669 48.1749 48.9368 46.6895 49.8791 44.6737C50.075 44.2545 49.9412 43.7551 49.5618 43.49C47.8434 42.2892 45.7242 41.8641 43.6917 42.2993C44.8709 41.0164 46.1832 39.8749 47.6001 38.8914C48.6049 40.4075 50.1259 41.5147 51.9068 41.9918C52.5479 42.1636 53.2004 42.2481 53.8496 42.2481C55.371 42.248 56.8717 41.7836 58.1502 40.8903C58.5295 40.6252 58.6633 40.1258 58.4674 39.7066C57.586 37.8211 55.9803 36.3998 54.0219 35.7539C55.019 35.4437 56.0392 35.1988 57.0764 35.0244C57.5949 34.9372 57.9446 34.4461 57.8574 33.9275C57.7702 33.4089 57.2791 33.0591 56.7605 33.1465C53.5992 33.6783 50.5833 34.8097 47.8676 36.4506C47.9135 36.3121 47.9561 36.1722 47.9941 36.0303C48.5684 33.8864 48.167 31.6108 46.8925 29.7869C46.6273 29.4075 46.1279 29.2737 45.7088 29.4697C43.6932 30.412 42.2076 32.1819 41.6331 34.3258C41.0606 36.4628 41.4582 38.7303 42.7229 40.551C42.3694 40.9168 42.0254 41.2931 41.6932 41.6813C40.5611 43.0038 39.577 44.4325 38.7486 45.9406C38.7206 45.8076 38.6891 45.6751 38.6537 45.5429C38.0792 43.3991 36.5936 41.6291 34.578 40.6868C34.1589 40.4907 33.6595 40.6245 33.3943 41.0039C32.1198 42.8278 31.7182 45.1034 32.2927 47.2473C32.8654 49.3848 34.344 51.1501 36.3505 52.0945C35.8687 54.0565 35.6194 56.0823 35.6194 58.1303C35.6194 58.295 35.6225 58.459 35.6256 58.6229C35.5372 58.5246 35.4463 58.4283 35.3524 58.3342C33.783 56.7647 31.6112 55.9748 29.3946 56.1665C28.9335 56.2063 28.568 56.572 28.5281 57.033C28.3362 59.2499 29.1264 61.4213 30.6958 62.9908C32.1104 64.4054 34.0139 65.1868 35.999 65.1868C36.2023 65.1868 36.4066 65.1778 36.6113 65.1613C37.2346 67.3191 38.1367 69.3596 39.2769 71.2408C39.1489 71.1991 39.0197 71.1603 38.8888 71.1253C36.7451 70.551 34.4693 70.9524 32.6454 72.2269C32.266 72.4919 32.1322 72.9914 32.3281 73.4106C33.2704 75.4263 35.0405 76.9118 37.1842 77.4863C37.8253 77.658 38.478 77.7426 39.1271 77.7426C40.6397 77.7426 42.1317 77.283 43.4051 76.3997C45.0162 77.9508 46.8311 79.2913 48.8053 80.3767C48.6414 80.4091 48.478 80.4451 48.3154 80.4887C46.1715 81.0631 44.4016 82.5488 43.4593 84.5644C43.2634 84.9836 43.3973 85.483 43.7766 85.7481C45.0551 86.6416 46.5556 87.106 48.0771 87.106C48.7261 87.106 49.3789 87.0214 50.02 86.8496C52.164 86.2752 53.9339 84.7897 54.8762 82.774C54.8791 82.7677 54.8813 82.7613 54.8841 82.7549C56.1502 83.0689 57.4533 83.2872 58.7858 83.4024L53.193 88.9952C52.8212 89.367 52.8212 89.9699 53.193 90.3416C53.5649 90.7135 54.1678 90.7135 54.5395 90.3416L60.9877 83.8934L67.4359 90.3416C67.6217 90.5275 67.8655 90.6205 68.1091 90.6205C68.3527 90.6205 68.5965 90.5276 68.7823 90.3416C69.1542 89.9698 69.1542 89.3669 68.7823 88.9952L63.1895 83.4024C64.5295 83.2866 65.8398 83.0665 67.1126 82.7497C67.1162 82.7577 67.119 82.766 67.1227 82.774C68.0649 84.7897 69.8349 86.2753 71.9787 86.8496C72.62 87.0214 73.2725 87.106 73.9216 87.106C75.443 87.106 76.9437 86.6414 78.2221 85.7481C78.6015 85.483 78.7353 84.9836 78.5394 84.5644C77.5971 82.5488 75.827 81.0631 73.6833 80.4887C73.5149 80.4436 73.3454 80.4067 73.1756 80.3735C75.1517 79.2864 76.9678 77.9438 78.5798 76.3903C79.8564 77.28 81.3537 77.7426 82.8718 77.7426C83.5208 77.7426 84.1737 77.658 84.8147 77.4863C86.9585 76.9118 88.7285 75.4263 89.6707 73.4106C89.8666 72.9914 89.7328 72.4919 89.3535 72.2269C87.5295 70.9524 85.2539 70.5508 83.1101 71.1253C82.9692 71.163 82.8301 71.2053 82.6925 71.2507C83.8359 69.3664 84.7401 67.3218 85.3645 65.1597C85.5779 65.1773 85.7897 65.1866 86.0008 65.1866ZM87.9941 59.6805C88.9616 58.713 90.2362 58.1426 91.5836 58.0544C91.4954 59.4019 90.925 60.6765 89.9575 61.644C88.99 62.6115 87.7153 63.182 86.3679 63.2701C86.456 61.9228 87.0264 60.648 87.9941 59.6805ZM85.1855 46.0357C85.5397 44.7141 86.3583 43.5827 87.4812 42.8325C88.0785 44.0436 88.2218 45.4326 87.8676 46.7543C87.5135 48.0759 86.695 49.2073 85.5719 49.9575C84.9748 48.7463 84.8314 47.3572 85.1855 46.0357ZM34.1324 46.7543C33.7782 45.4326 33.9215 44.0436 34.5188 42.8325C35.6417 43.5827 36.4603 44.7141 36.8145 46.0355C37.1687 47.3572 37.0254 48.7463 36.4281 49.9573C35.305 49.2073 34.4864 48.0759 34.1324 46.7543ZM32.0425 61.6441C31.075 60.6766 30.5046 59.402 30.4163 58.0545C31.7637 58.1427 33.0386 58.7133 34.0059 59.6806C34.9734 60.6482 35.5438 61.9228 35.6321 63.2704C34.2848 63.182 33.01 62.6115 32.0425 61.6441ZM42.7514 52.9901C42.6633 54.3376 42.0928 55.6122 41.1253 56.5798C40.1578 57.5473 38.8831 58.1179 37.5356 58.206C37.6238 56.8585 38.1942 55.5838 39.1617 54.6164C40.1294 53.6487 41.4041 53.0783 42.7514 52.9901ZM47.7336 44.6143C46.9834 45.7372 45.852 46.5558 44.5306 46.91C43.2087 47.264 41.8196 47.1208 40.6087 46.5234C41.3588 45.4005 42.4902 44.5819 43.8119 44.2277C45.1333 43.8735 46.5224 44.0168 47.7336 44.6143ZM53.1188 37.4702C54.4404 37.8244 55.5718 38.6429 56.3219 39.7658C55.1108 40.3633 53.7215 40.5064 52.4001 40.1524C51.084 39.7997 49.9568 38.9862 49.2067 37.8706C49.2597 37.8398 49.3124 37.8086 49.3655 37.7783C50.5359 37.2482 51.8579 37.1323 53.1188 37.4702ZM43.4728 34.8185C43.827 33.4969 44.6456 32.3655 45.7685 31.6155C46.3659 32.8266 46.5091 34.2156 46.155 35.5373C45.801 36.859 44.9823 37.9903 43.8594 38.7404C43.2619 37.5292 43.1187 36.1401 43.4728 34.8185ZM37.6775 75.6467C36.356 75.2925 35.2245 74.4739 34.4745 73.351C35.6856 72.7537 37.0749 72.6105 38.3963 72.9645C39.718 73.3187 40.8493 74.1372 41.5993 75.2601C40.3883 75.8575 38.9992 76.0008 37.6775 75.6467ZM49.5277 85.0101C48.2061 85.3642 46.817 85.2211 45.6058 84.6237C46.356 83.5008 47.4873 82.6822 48.809 82.328C50.1307 81.9738 51.5198 82.1171 52.7308 82.7146C51.9806 83.8374 50.8492 84.656 49.5277 85.0101ZM76.3941 84.6237C75.183 85.2211 73.7938 85.3643 72.4723 85.0101C71.1507 84.656 70.0193 83.8374 69.2693 82.7144C70.4803 82.117 71.8694 81.9737 73.1911 82.328C74.5127 82.6822 75.6441 83.5008 76.3941 84.6237ZM72.3168 74.6119C72.671 73.2903 73.4896 72.1589 74.6125 71.4089C75.2098 72.6199 75.3531 74.009 74.9989 75.3307C74.6993 76.4489 74.0662 77.4299 73.1986 78.16C73.0252 78.2661 72.8506 78.3704 72.6744 78.472C72.1023 77.2755 71.9686 75.9114 72.3168 74.6119ZM47.0011 75.3307C46.6469 74.009 46.7902 72.6199 47.3875 71.4089C48.5104 72.1591 49.329 73.2905 49.6832 74.6119C50.0324 75.9152 49.897 77.2838 49.3205 78.4827C49.167 78.3944 49.0148 78.304 48.8635 78.2123C47.9636 77.4772 47.3079 76.4756 47.0011 75.3307ZM76.2316 31.6154C77.3545 32.3655 78.1731 33.4968 78.5273 34.8185C78.8815 36.1402 78.7382 37.5293 78.1409 38.7403C77.018 37.9903 76.1994 36.8589 75.8452 35.5373C75.4909 34.2155 75.6342 32.8265 76.2316 31.6154ZM69.6 40.1523C68.2784 40.5065 66.8893 40.3632 65.6782 39.7657C66.4284 38.6428 67.5596 37.8242 68.8812 37.47C70.1048 37.1421 71.386 37.2414 72.5303 37.7319C72.6163 37.7804 72.7013 37.8304 72.7867 37.8801C72.0365 38.9908 70.9123 39.8008 69.6 40.1523ZM77.4696 46.91C76.148 46.5558 75.0167 45.7372 74.2665 44.6143C75.4777 44.0168 76.8669 43.8736 78.1884 44.2277C79.4488 44.5654 80.5352 45.3262 81.2839 46.3698C81.315 46.4232 81.3452 46.4771 81.3758 46.5308C80.1683 47.1216 78.7856 47.2625 77.4696 46.91ZM78.9886 66.7194C78.6344 65.3978 78.7777 64.0087 79.375 62.7976C80.4979 63.5477 81.3165 64.679 81.6707 66.0007C82.0114 67.272 81.8904 68.6053 81.3491 69.7829C81.3238 69.8268 81.2976 69.8702 81.272 69.914C80.1555 69.164 79.3414 68.0363 78.9886 66.7194ZM83.6038 72.9645C84.9254 72.6104 86.3145 72.7536 87.5256 73.351C86.7754 74.4739 85.6442 75.2925 84.3226 75.6467C83.0008 76.0009 81.6116 75.8576 80.4008 75.2601C81.1507 74.1372 82.2821 73.3187 83.6038 72.9645Z" fill="#FFB74A" fill-opacity="0.5"/>
</g>
<defs>
<filter id="filter0_f_1_1185" x="0.5" y="0.5" width="120" height="120" filterUnits="userSpaceOnUse" color-interpolation-filters="sRGB">
<feFlood flood-opacity="0" result="BackgroundImageFix"/>
<feBlend mode="normal" in="SourceGraphic" in2="BackgroundImageFix" result="shape"/>
<feGaussianBlur stdDeviation="17.5" result="effect1_foregroundBlur_1_1185"/>
</filter>
<clipPath id="clip0_1_1185">
<rect width="65" height="65" fill="white" transform="translate(28.5 27.5)"/>
</clipPath>
</defs>
</svg>
